<svg width="160" height="82" viewBox="0 0 160 82" fill="none" xmlns="http://www.w3.org/2000/svg">
<ellipse cx="80" cy="70" rx="62" ry="8" fill="#111827" fill-opacity=".10"/>
<path d="M25 48L35 27.5C38 21 44 18 52 18H104C113 18 120 22 125 29L139 49V61H128C126 68 121 72 114 72C107 72 102 68 100 61H60C58 68 53 72 46 72C39 72 34 68 32 61H21V54C21 51 22 49 25 48Z" fill="#F8FAFC" stroke="#C9D0DA" stroke-width="2.2"/>
<path d="M45 26H76V43H34L41 30C42 28 43 26 45 26Z" fill="#111827" fill-opacity=".12"/>
<path d="M82 26H105C111 26 115 29 119 34L124 43H82V26Z" fill="#111827" fill-opacity=".12"/>
<circle cx="46" cy="61" r="9" fill="#111827"/><circle cx="114" cy="61" r="9" fill="#111827"/>
<circle cx="46" cy="61" r="4" fill="#E5E7EB"/><circle cx="114" cy="61" r="4" fill="#E5E7EB"/>
<path d="M27 50H41" stroke="#1D6FFF" stroke-width="3" stroke-linecap="round"/>
</svg>