<svg xmlns="http://www.w3.org/2000/svg" width="1024" height="1024" viewBox="0 0 512 512" role="img" aria-label="SmartTaxi icon">
  <defs>
    <linearGradient id="gold" x1="100" y1="74" x2="412" y2="438" gradientUnits="userSpaceOnUse">
      <stop offset="0" stop-color="#F4D27A"/>
      <stop offset="0.48" stop-color="#C99A2E"/>
      <stop offset="1" stop-color="#A97814"/>
    </linearGradient>
    <linearGradient id="ink" x1="132" y1="118" x2="380" y2="402" gradientUnits="userSpaceOnUse">
      <stop offset="0" stop-color="#24211A"/>
      <stop offset="1" stop-color="#111111"/>
    </linearGradient>
  </defs>
  <circle cx="256" cy="256" r="210" fill="url(#gold)"/>
  <circle cx="256" cy="256" r="165" fill="#FFFCF6"/>
  <path d="M145 291C183 258 211 236 247 214C292 186 340 173 382 176" fill="none" stroke="url(#ink)" stroke-width="29" stroke-linecap="round"/>
  <path d="M128 348C181 304 224 277 276 254C315 237 351 229 386 230" fill="none" stroke="url(#gold)" stroke-width="29" stroke-linecap="round"/>
  <path d="M260 94C198 94 148 144 148 205C148 285 245 380 255 390C258 393 263 393 266 390C276 380 373 285 373 205C373 144 322 94 260 94Z" fill="url(#ink)"/>
  <circle cx="260" cy="203" r="43" fill="#FFFCF6"/>
  <circle cx="260" cy="203" r="18" fill="url(#gold)"/>
  <circle cx="126" cy="352" r="24" fill="url(#ink)"/>
  <circle cx="386" cy="230" r="24" fill="url(#ink)"/>
  <path d="M170 407C222 433 291 437 344 408" fill="none" stroke="#FFFCF6" stroke-width="18" stroke-linecap="round"/>
</svg>
